<svg width="200" height="200" viewBox="0 0 200 200" xmlns="http://www.w3.org/2000/svg">
  <defs>
    <!-- Colorful rays gradient -->
    <radialGradient id="raysGradient" cx="50%" cy="50%" r="50%" fx="50%" fy="50%">
      <stop offset="0%" stop-color="#ffeba1" />
      <stop offset="40%" stop-color="#ffc107" />
      <stop offset="70%" stop-color="#ff9800" />
      <stop offset="100%" stop-color="#ff5722" />
    </radialGradient>
    
    <!-- Blur Filter -->
    <filter id="blur">
      <feGaussianBlur in="SourceGraphic" stdDeviation="3" />
    </filter>

    <!-- Petal shape -->
    <path id="petal" d="M100,100 Q130,40 100,20 Q70,40 100,100 Z" />
    
    <!-- White Petals Group -->
    <g id="white-petals-group">
         <use href="#petal" fill="white" transform="rotate(0, 100, 100)" />
         <use href="#petal" fill="white" transform="rotate(45, 100, 100)" />
         <use href="#petal" fill="white" transform="rotate(90, 100, 100)" />
         <use href="#petal" fill="white" transform="rotate(135, 100, 100)" />
         <use href="#petal" fill="white" transform="rotate(180, 100, 100)" />
         <use href="#petal" fill="white" transform="rotate(225, 100, 100)" />
         <use href="#petal" fill="white" transform="rotate(270, 100, 100)" />
         <use href="#petal" fill="white" transform="rotate(315, 100, 100)" />
    </g>
  </defs>

  <!-- Bottom Layer: Colorful Rays/Petals -->
  <g id="flower-bottom">
    <use href="#petal" fill="url(#raysGradient)" transform="rotate(22.5, 100, 100)" />
    <use href="#petal" fill="url(#raysGradient)" transform="rotate(67.5, 100, 100)" />
    <use href="#petal" fill="url(#raysGradient)" transform="rotate(112.5, 100, 100)" />
    <use href="#petal" fill="url(#raysGradient)" transform="rotate(157.5, 100, 100)" />
    <use href="#petal" fill="url(#raysGradient)" transform="rotate(202.5, 100, 100)" />
    <use href="#petal" fill="url(#raysGradient)" transform="rotate(247.5, 100, 100)" />
    <use href="#petal" fill="url(#raysGradient)" transform="rotate(292.5, 100, 100)" />
    <use href="#petal" fill="url(#raysGradient)" transform="rotate(337.5, 100, 100)" />
  </g>

  <!-- Middle Layer 1: Blurred White Flower (The "second flower with blur") -->
  <!-- Slightly larger and rotated to fill gaps -->
  <g transform="scale(0.85) translate(15,15)" opacity="0.8" filter="url(#blur)">
      <use href="#white-petals-group" />
      <use href="#white-petals-group" transform="rotate(22.5, 100, 100)" />
  </g>

  <!-- Middle Layer 2: Main White Flower (Sharp) -->
  <!-- Scaled down to be inside the colorful rays -->
  <g transform="scale(0.75) translate(33,33)" opacity="0.9">
     <use href="#white-petals-group" />
     <!-- "Double" the petals by adding another rotated set -->
     <use href="#white-petals-group" transform="rotate(22.5, 100, 100)" />
  </g>

  <!-- Top Layer: Transparent/Glassy effect -->
  <circle cx="100" cy="100" r="25" fill="white" fill-opacity="0.4" stroke="white" stroke-width="1.5" />
  <circle cx="100" cy="100" r="12" fill="#fff9c4" />
</svg>
